<svg width="512" height="491" viewBox="0 0 512 491" fill="none" xmlns="http://www.w3.org/2000/svg">
<path d="M463.871 399.342C435.077 426.662 391.655 434.461 354.363 422.202L300.825 285.404C314.877 265.202 335.439 249.121 351.912 237.398C400.681 202.691 396.848 140.51 434.44 139.861C528.092 138.233 535.726 331.175 463.871 399.342Z" fill="#6E61B6"/>
<path d="M434.439 139.861C428.306 139.967 423.281 141.719 418.945 144.714C488.227 174.926 488.077 337.869 423.277 399.343C408.331 413.525 389.44 422.432 369.514 426.019C402.944 432.033 438.906 423.032 463.872 399.343C535.726 331.175 528.092 138.233 434.439 139.861Z" fill="#6354B1"/>
<path d="M300.825 285.405C277.831 257.94 259.711 224.027 244.742 185.406C222.191 127.242 197.21 90.2073 153.334 88.0643C55.9919 83.3143 -20.5401 211.891 4.9469 327.858C39.6129 485.527 193.418 513.002 288.658 475.06C321.16 462.111 342.402 442.929 354.363 422.202L300.825 285.405Z" fill="#FE7AB6"/>
<path d="M300.825 285.405C277.831 257.94 259.711 224.027 244.742 185.406C222.191 127.242 197.21 90.2074 153.334 88.0644C142.452 87.5334 131.833 88.6804 121.584 91.2774C154.518 101.639 175.509 135.841 194.725 185.405C209.693 224.026 227.814 257.94 250.808 285.404C262.449 299.311 275.326 311.55 289.687 321.924C317.244 341.827 326.083 384.569 304.346 422.202C292.386 442.929 271.143 462.111 238.641 475.06C221.213 482.003 201.821 486.744 181.56 488.909C219.379 492.977 257.211 487.588 288.657 475.06C321.159 462.111 342.401 442.929 354.362 422.202L300.825 285.405Z" fill="#FE5CA7"/>
<path d="M314.115 398.032C306.351 390.49 299.609 381.508 294.283 371.075C284.617 352.136 282.769 334.759 285.868 319.068L319.426 332.935L334.314 370.976L314.115 398.032Z" fill="#FFFACE"/>
<path d="M339.704 321.924C325.343 311.55 312.466 299.311 300.825 285.404C293.729 295.592 288.292 306.824 285.869 319.067C287.135 320.029 288.398 320.993 289.688 321.924C311.437 337.632 321.511 367.565 314.113 397.985C325.696 409.243 339.537 417.32 354.364 422.201C376.1 384.57 367.261 341.827 339.704 321.924Z" fill="#FEF6AD"/>
<path d="M319.927 87.938C344.21 87.938 363.896 68.2524 363.896 43.969C363.896 19.6856 344.21 0 319.927 0C295.644 0 275.958 19.6856 275.958 43.969C275.958 68.2524 295.644 87.938 319.927 87.938Z" fill="#75CDD5"/>
<path d="M319.927 2.24779e-05C312.859 -0.00713984 305.895 1.69745 299.63 4.96802C313.694 12.303 323.302 27.009 323.302 43.969C323.302 60.928 313.694 75.635 299.63 82.97C305.895 86.2405 312.859 87.9451 319.927 87.938C344.211 87.938 363.896 68.252 363.896 43.969C363.896 19.686 344.21 2.24779e-05 319.927 2.24779e-05Z" fill="#2ABCC8"/>
</svg>
